{"title":"Udta Punjab (2016)Tiny 720p Blu-ray x264 AAC 5.1 ESub -DDR","uid":15749146,"size":1588441338,"categoryP":"video","categoryS":"hd___movies","magnet":"?xt=urn:btih:cdd9ba21dd34d725343174baf7e2cc9aafdbb2ba&amp;dn=Udta+Punjab+%282016%29Tiny+720p+Blu-ray+x264+AAC+5.1+ESub+-DDR&amp;tr=udp%3A%2F%2Ftracker.leechers-paradise.org%3A6969&amp;tr=udp%3A%2F%2Fzer0day.ch%3A1337&amp;tr=udp%3A%2F%2Fopen.demonii.com%3A1337&amp;tr=udp%3A%2F%2Ftracker.coppersurfer.tk%3A6969&amp;tr=udp%3A%2F%2Fexodus.desync.com%3A6969","seeders":9,"leechers":6,"uploader":"SaM","files":3,"time":1473008889,"description":"** UDTA PUNJAB **\r\n\r\n** 2016**\r\n\r\n** Tiny 720p / Blu-ray Rip / x264\r\n\r\nHindi AAC 5.1 **\r\n\r\n** English Subtitle(s) **\r\n\r\n\r\n\r\n[ SCREENS ]\r\n \nhttp://extraimago.com/image/wQs8 \nhttp://extraimago.com/image/wQsi \nhttp://extraimago.com/image/wQsm \nhttp://extraimago.com/image/wQsR \nhttp://extraimago.com/image/wQsQ \nhttp://extraimago.com/image/wQsL \nhttp://extraimago.com/image/wQsq \nhttp://extraimago.com/image/wQsO \nhttp://extraimago.com/image/wQs1 \nhttp://extraimago.com/image/wQsc \nhttp://extraimago.com/image/wQs7 \nhttp://extraimago.com/image/wQss \nhttp://extraimago.com/image/wQsj \nhttp://extraimago.com/image/wQsT \nhttp://extraimago.com/image/wQsN \nhttp://extraimago.com/image/wQs2 \nhttp://extraimago.com/image/wQsw \nhttp://extraimago.com/image/wQsa\r\n\r\n[ Info ]\r\n\r\nSource = BD50 @ DDR\r\n\r\nFormat : Matroska\r\nFile size : 1.45 GiB\r\nDuration : 2 h 26 min\r\nOverall bit rate : 1 415 kb/s\r\n\r\nVideo\r\nFormat : AVC\r\nFormat/Info : Advanced Video Codec\r\nFormat profile :   \r\nFormat settings, CABAC : Yes\r\nFormat settings, ReFrames : 12 frames\r\nCodec ID : V_MPEG4/ISO/AVC\r\nDuration : 2 h 26 min\r\nBit rate : 1 252 kb/s\r\nWidth : 1 280 pixels\r\nHeight : 534 pixels\r\nDisplay aspect ratio : 2.40:1\r\nFrame rate mode : Constant\r\nFrame rate : 24.000 FPS\r\ncolor space : YUV\r\nChroma subsampling : 4:2:0\r\nBit depth : 8 bits\r\nScan type : Progressive\r\nBits/(Pixel*Frame) : 0.076\r\nStream size : 1.28 GiB (88%)\r\nLanguage : English\r\nDefault : Yes\r\nForced : No\r\ncolor range : Limited\r\ncolor primaries : BT.709\r\nTransfer characteristics : BT.709\r\nMatrix coefficients : BT.709\r\n\r\n\r\nAudio\r\nID : 2\r\nFormat : AAC\r\nFormat/Info : Advanced Audio Codec\r\nFormat profile : LC\r\nCodec ID : A_AAC\r\nDuration : 2 h 26 min\r\nBit rate : 160 kb/s\r\nChannel(s) : 6 channels\r\nChannel positions : Front: L C R, Side: L R, LFE\r\nSampling rate : 48.0 kHz\r\nFrame rate : 46.875 FPS (1024 spf)\r\nCompression mode : Lossy\r\nDelay relative to video : 12 ms\r\nStream size : 168 MiB (11%)\r\nLanguage : Hindi\r\nDefault : Yes\r\nForced : No\r\n\r\nChapters = YES","torrent":{"xt":"urn:btih:cdd9ba21dd34d725343174baf7e2cc9aafdbb2ba","amp;dn":"Udta+Punjab+%282016%29Tiny+720p+Blu-ray+x264+AAC+5.1+ESub+-DDR","amp;tr":["udp%3A%2F%2Ftracker.leechers-paradise.org%3A6969","udp%3A%2F%2Fzer0day.ch%3A1337","udp%3A%2F%2Fopen.demonii.com%3A1337","udp%3A%2F%2Ftracker.coppersurfer.tk%3A6969","udp%3A%2F%2Fexodus.desync.com%3A6969"],"infoHash":"cdd9ba21dd34d725343174baf7e2cc9aafdbb2ba","infoHashBuffer":{"type":"Buffer","data":[205,217,186,33,221,52,215,37,52,49,116,186,247,226,204,154,175,219,178,186]},"announce":[],"urlList":[]}}